<svg xmlns="http://www.w3.org/2000/svg" width="28" height="28" viewBox="0 0 28 28" fill="none">
  <rect width="28" height="28" rx="4" fill="#5865F2"/>
  <path d="M18.93 9.95a13.4 13.4 0 0 0-3.31-1.03 10 10 0 0 0-.44.9 12.4 12.4 0 0 0-3.72 0 9.3 9.3 0 0 0-.44-.9A13.3 13.3 0 0 0 7.7 9.95a13.85 13.85 0 0 0-2.38 8.88 13.5 13.5 0 0 0 4.12 2.08 10.2 10.2 0 0 0 .9-1.46 8.8 8.8 0 0 1-1.4-.68l.34-.27a9.6 9.6 0 0 0 8.26 0l.34.27c-.45.27-.92.5-1.41.68.26.52.56 1 .9 1.46a13.44 13.44 0 0 0 4.12-2.08 13.8 13.8 0 0 0-2.37-8.88zM11.3 17.2c-.77 0-1.4-.71-1.4-1.57s.62-1.57 1.4-1.57 1.41.71 1.4 1.57c0 .86-.62 1.57-1.4 1.57zm5.04 0c-.77 0-1.4-.71-1.4-1.57s.62-1.57 1.4-1.57 1.41.71 1.4 1.57c0 .86-.62 1.57-1.4 1.57z" fill="white"/>
</svg>
